<svg data-v-423bf9ae="" xmlns="http://www.w3.org/2000/svg" viewBox="0 0 232.1775268037374 60" class="font"><!----><!----><defs data-v-423bf9ae=""><linearGradient data-v-423bf9ae="" gradientTransform="rotate(25)" id="49083a6e-8256-4af2-a3b8-debe018a2a97" x1="0%" y1="0%" x2="100%" y2="0%"><stop data-v-423bf9ae="" offset="0%" style="stop-color: rgb(142, 66, 211); stop-opacity: 1;"></stop><stop data-v-423bf9ae="" offset="100%" style="stop-color: rgb(212, 105, 117); stop-opacity: 1;"></stop></linearGradient></defs><g data-v-423bf9ae="" id="1ad66db0-f306-43dd-a09e-a40cd8c1ea2d" fill="url(#49083a6e-8256-4af2-a3b8-debe018a2a97)" transform="matrix(4.160887634018687,0,0,4.160887634018687,-3.3287105004997244,-5.284326739003944)"><path d="M5.07 1.27L5.07 1.27Q6.27 1.27 7.10 1.76L7.10 1.76L7.10 1.76Q7.92 2.25 8.50 3.16L8.50 3.16L8.50 3.16Q8.67 3.43 8.67 3.67L8.67 3.67L8.67 3.67Q8.67 3.98 8.39 4.17L8.39 4.17L8.39 4.17Q8.23 4.27 8.02 4.27L8.02 4.27L8.02 4.27Q7.81 4.27 7.63 4.16L7.63 4.16L7.63 4.16Q7.45 4.06 7.35 3.88L7.35 3.88L7.35 3.88Q6.97 3.25 6.41 2.92L6.41 2.92L6.41 2.92Q5.84 2.59 4.97 2.59L4.97 2.59L4.97 2.59Q3.91 2.59 3.25 3.00L3.25 3.00L3.25 3.00Q2.59 3.42 2.59 4.20L2.59 4.20L2.59 4.20Q2.59 4.93 3.18 5.42L3.18 5.42L3.18 5.42Q3.77 5.91 5.28 6.06L5.28 6.06L5.28 6.06Q6.96 6.23 7.88 7.08L7.88 7.08L7.88 7.08Q8.81 7.92 8.81 9.31L8.81 9.31L8.81 9.31Q8.81 10.32 8.26 11.04L8.26 11.04L8.26 11.04Q7.71 11.76 6.81 12.12L6.81 12.12L6.81 12.12Q5.91 12.47 4.87 12.47L4.87 12.47L4.87 12.47Q3.51 12.47 2.40 11.86L2.40 11.86L2.40 11.86Q1.29 11.24 0.87 10.25L0.87 10.25L0.87 10.25Q0.80 10.08 0.80 9.97L0.80 9.97L0.80 9.97Q0.80 9.76 0.95 9.60L0.95 9.60L0.95 9.60Q1.11 9.44 1.37 9.38L1.37 9.38L1.37 9.38Q1.41 9.37 1.51 9.37L1.51 9.37L1.51 9.37Q1.74 9.37 1.94 9.50L1.94 9.50L1.94 9.50Q2.14 9.63 2.24 9.86L2.24 9.86L2.24 9.86Q2.49 10.40 3.23 10.78L3.23 10.78L3.23 10.78Q3.98 11.16 4.87 11.16L4.87 11.16L4.87 11.16Q5.92 11.16 6.65 10.67L6.65 10.67L6.65 10.67Q7.38 10.19 7.38 9.35L7.38 9.35L7.38 9.35Q7.38 8.55 6.76 7.99L6.76 7.99L6.76 7.99Q6.15 7.42 4.89 7.29L4.89 7.29L4.89 7.29Q3.15 7.13 2.16 6.28L2.16 6.28L2.16 6.28Q1.16 5.43 1.16 4.16L1.16 4.16L1.16 4.16Q1.16 3.26 1.67 2.61L1.67 2.61L1.67 2.61Q2.18 1.96 3.07 1.62L3.07 1.62L3.07 1.62Q3.96 1.27 5.07 1.27L5.07 1.27ZM14.36 4.62L14.36 4.62Q15.44 4.62 16.32 5.13L16.32 5.13L16.32 5.13Q17.19 5.64 17.70 6.53L17.70 6.53L17.70 6.53Q18.21 7.42 18.21 8.51L18.21 8.51L18.21 11.63L18.21 11.63Q18.21 11.94 18.01 12.14L18.01 12.14L18.01 12.14Q17.81 12.35 17.50 12.35L17.50 12.35L17.50 12.35Q17.19 12.35 16.99 12.14L16.99 12.14L16.99 12.14Q16.79 11.94 16.79 11.63L16.79 11.63L16.79 11.12L16.79 11.12Q16.30 11.72 15.60 12.05L15.60 12.05L15.60 12.05Q14.90 12.39 14.08 12.39L14.08 12.39L14.08 12.39Q13.08 12.39 12.26 11.89L12.26 11.89L12.26 11.89Q11.44 11.38 10.97 10.49L10.97 10.49L10.97 10.49Q10.50 9.60 10.50 8.51L10.50 8.51L10.50 8.51Q10.50 7.42 11.00 6.53L11.00 6.53L11.00 6.53Q11.51 5.64 12.40 5.13L12.40 5.13L12.40 5.13Q13.29 4.62 14.36 4.62L14.36 4.62ZM14.36 11.13L14.36 11.13Q15.06 11.13 15.63 10.79L15.63 10.79L15.63 10.79Q16.20 10.44 16.52 9.85L16.52 9.85L16.52 9.85Q16.84 9.25 16.84 8.51L16.84 8.51L16.84 8.51Q16.84 7.77 16.52 7.17L16.52 7.17L16.52 7.17Q16.20 6.57 15.63 6.22L15.63 6.22L15.63 6.22Q15.06 5.88 14.36 5.88L14.36 5.88L14.36 5.88Q13.66 5.88 13.10 6.22L13.10 6.22L13.10 6.22Q12.53 6.57 12.20 7.17L12.20 7.17L12.20 7.17Q11.87 7.77 11.87 8.51L11.87 8.51L11.87 8.51Q11.87 9.25 12.20 9.85L12.20 9.85L12.20 9.85Q12.53 10.44 13.10 10.79L13.10 10.79L13.10 10.79Q13.66 11.13 14.36 11.13L14.36 11.13ZM20.06 2.10L20.06 2.10Q20.06 1.79 20.26 1.60L20.26 1.60L20.26 1.60Q20.45 1.40 20.76 1.40L20.76 1.40L20.76 1.40Q21.07 1.40 21.27 1.60L21.27 1.60L21.27 1.60Q21.46 1.79 21.46 2.10L21.46 2.10L21.46 9.74L21.46 9.74Q21.46 10.26 21.66 10.60L21.66 10.60L21.66 10.60Q21.85 10.93 22.16 10.93L22.16 10.93L22.51 10.93L22.51 10.93Q22.79 10.93 22.97 11.13L22.97 11.13L22.97 11.13Q23.14 11.33 23.14 11.63L23.14 11.63L23.14 11.63Q23.14 11.94 22.88 12.14L22.88 12.14L22.88 12.14Q22.61 12.33 22.19 12.33L22.19 12.33L22.16 12.33L22.16 12.33Q21.56 12.33 21.08 12.00L21.08 12.00L21.08 12.00Q20.59 11.68 20.33 11.08L20.33 11.08L20.33 11.08Q20.06 10.49 20.06 9.74L20.06 9.74L20.06 2.10ZM27.80 10.93L27.80 10.93Q28.06 10.93 28.23 11.13L28.23 11.13L28.23 11.13Q28.41 11.33 28.41 11.63L28.41 11.63L28.41 11.63Q28.41 11.94 28.18 12.14L28.18 12.14L28.18 12.14Q27.94 12.33 27.58 12.33L27.58 12.33L27.33 12.33L27.33 12.33Q26.64 12.33 26.07 11.98L26.07 11.98L26.07 11.98Q25.51 11.62 25.19 11.00L25.19 11.00L25.19 11.00Q24.86 10.39 24.86 9.62L24.86 9.62L24.86 6.16L24.22 6.16L24.22 6.16Q23.93 6.16 23.74 5.99L23.74 5.99L23.74 5.99Q23.56 5.82 23.56 5.57L23.56 5.57L23.56 5.57Q23.56 5.29 23.74 5.12L23.74 5.12L23.74 5.12Q23.93 4.96 24.22 4.96L24.22 4.96L24.86 4.96L24.86 2.94L24.86 2.94Q24.86 2.63 25.06 2.44L25.06 2.44L25.06 2.44Q25.26 2.24 25.56 2.24L25.56 2.24L25.56 2.24Q25.87 2.24 26.07 2.44L26.07 2.44L26.07 2.44Q26.26 2.63 26.26 2.94L26.26 2.94L26.26 4.96L27.45 4.96L27.45 4.96Q27.75 4.96 27.93 5.12L27.93 5.12L27.93 5.12Q28.11 5.29 28.11 5.57L28.11 5.57L28.11 5.57Q28.11 5.82 27.93 5.99L27.93 5.99L27.93 5.99Q27.75 6.16 27.45 6.16L27.45 6.16L26.26 6.16L26.26 9.62L26.26 9.62Q26.26 10.18 26.57 10.56L26.57 10.56L26.57 10.56Q26.88 10.93 27.33 10.93L27.33 10.93L27.80 10.93ZM36.01 4.75L36.01 4.75Q36.44 4.91 36.44 5.29L36.44 5.29L36.44 5.29Q36.44 5.43 36.36 5.63L36.36 5.63L32.07 15.26L32.07 15.26Q31.91 15.69 31.53 15.69L31.53 15.69L31.53 15.69Q31.39 15.69 31.19 15.61L31.19 15.61L31.19 15.61Q30.77 15.43 30.77 15.06L30.77 15.06L30.77 15.06Q30.77 14.90 30.86 14.73L30.86 14.73L32.26 11.58L29.11 5.60L29.11 5.60Q29.04 5.47 29.04 5.31L29.04 5.31L29.04 5.31Q29.04 5.12 29.15 4.97L29.15 4.97L29.15 4.97Q29.26 4.82 29.44 4.73L29.44 4.73L29.44 4.73Q29.57 4.68 29.72 4.68L29.72 4.68L29.72 4.68Q30.11 4.68 30.31 5.07L30.31 5.07L32.87 10.16L35.13 5.08L35.13 5.08Q35.31 4.68 35.67 4.68L35.67 4.68L35.67 4.68Q35.85 4.68 36.01 4.75L36.01 4.75ZM40.78 7.80L40.78 7.80Q41.09 7.80 41.29 8.00L41.29 8.00L41.29 8.00Q41.48 8.20 41.48 8.51L41.48 8.51L41.48 8.51Q41.48 8.82 41.29 9.02L41.29 9.02L41.29 9.02Q41.09 9.21 40.78 9.21L40.78 9.21L37.66 9.21L37.66 9.21Q37.35 9.21 37.15 9.02L37.15 9.02L37.15 9.02Q36.95 8.82 36.95 8.51L36.95 8.51L36.95 8.51Q36.95 8.20 37.15 8.00L37.15 8.00L37.15 8.00Q37.35 7.80 37.66 7.80L37.66 7.80L40.78 7.80ZM43.32 2.13L43.32 2.13Q43.32 1.81 43.53 1.60L43.53 1.60L43.53 1.60Q43.74 1.40 44.04 1.40L44.04 1.40L44.04 1.40Q44.37 1.40 44.57 1.60L44.57 1.60L44.57 1.60Q44.77 1.81 44.77 2.13L44.77 2.13L44.77 8.67L44.77 8.67Q44.77 9.41 45.17 10.00L45.17 10.00L45.17 10.00Q45.57 10.58 46.28 10.91L46.28 10.91L46.28 10.91Q46.98 11.24 47.89 11.24L47.89 11.24L47.89 11.24Q48.76 11.24 49.45 10.91L49.45 10.91L49.45 10.91Q50.13 10.58 50.52 10.00L50.52 10.00L50.52 10.00Q50.90 9.41 50.90 8.67L50.90 8.67L50.90 2.13L50.90 2.13Q50.90 1.81 51.11 1.60L51.11 1.60L51.11 1.60Q51.32 1.40 51.63 1.40L51.63 1.40L51.63 1.40Q51.94 1.40 52.14 1.60L52.14 1.60L52.14 1.60Q52.35 1.81 52.35 2.13L52.35 2.13L52.35 8.67L52.35 8.67Q52.35 9.79 51.78 10.67L51.78 10.67L51.78 10.67Q51.21 11.56 50.20 12.06L50.20 12.06L50.20 12.06Q49.18 12.56 47.89 12.56L47.89 12.56L47.89 12.56Q46.56 12.56 45.52 12.06L45.52 12.06L45.52 12.06Q44.48 11.56 43.90 10.68L43.90 10.68L43.90 10.68Q43.32 9.80 43.32 8.67L43.32 8.67L43.32 2.13ZM55.15 2.13L55.15 2.13Q55.15 1.81 55.36 1.60L55.36 1.60L55.36 1.60Q55.57 1.40 55.87 1.40L55.87 1.40L55.87 1.40Q56.20 1.40 56.40 1.60L56.40 1.60L56.40 1.60Q56.60 1.81 56.60 2.13L56.60 2.13L56.60 11.61L56.60 11.61Q56.60 11.91 56.40 12.12L56.40 12.12L56.40 12.12Q56.20 12.33 55.87 12.33L55.87 12.33L55.87 12.33Q55.57 12.33 55.36 12.12L55.36 12.12L55.36 12.12Q55.15 11.91 55.15 11.61L55.15 11.61L55.15 2.13Z"></path></g><!----><!----></svg>